# xmcd
#
# Track frame offsets: 
#        150
#        11947
#        22710
#        32705
#        44132
#        54961
#        66250
#        76579
#        88302
#        98493
#        108939
#        119343
#        128586
#        136524
#        147325
#        158337
#        166958
#        179354
#        188717
#
# Disc length: 2707 seconds
#
# Revision: 0
# Processed by: cddbd v1.5.2PL0 Copyright (c) Steve Scherf et al.
# Submitted via: ExactAudioCopyFreeDBPlugin 1.0
#
DISCID=e90a9113
DTITLE=Various Artist - In The Studio with Mac Rebennack: Good Times In New O
DTITLE=rleans 1958-1962
DYEAR=2017
DGENRE=
TTITLE0=Mac Rebennack - Good Times
TTITLE1=Big Boy Myles - New Orleans
TTITLE2=Big Boy Myles - (Put On Your Old) Gray Bonnet
TTITLE3=Carl Greenstreet - Hey Mama
TTITLE4=Mac Rebbenack - Foolish Little Girl
TTITLE5=Gene and Al's Spacemen - Mercy
TTITLE6=Bat Carroll - Aw! Who?
TTITLE7=Sugar Boy Crawford - Have A Little Mercy
TTITLE8=Chuck Carbo - Out On A Limb
TTITLE9=Mac Rebennack - Sahara
TTITLE10=The Ends - Row, Row My Boat
TTITLE11=Joe And Ann - Curiosity
TTITLE12=Ronnie and The Delinquents - Bad Neighborhood
TTITLE13=Morgus and The Ghouls - Morgus The Magnificent
TTITLE14=Frankie and Mac - Lonely Boy
TTITLE15=Jerry Byrne - Lights Out
TTITLE16=Drits and Dravy - Talk That Talk
TTITLE17=Ronald Stone - Something Special
TTITLE18=Mac Rebennack - Storm Warning
EXTD=
EXTT0=
EXTT1=
EXTT2=
EXTT3=
EXTT4=
EXTT5=
EXTT6=
EXTT7=
EXTT8=
EXTT9=
EXTT10=
EXTT11=
EXTT12=
EXTT13=
EXTT14=
EXTT15=
EXTT16=
EXTT17=
EXTT18=
PLAYORDER=
